<svg width="1024" height="563" viewBox="0 0 1024 563" fill="none" xmlns="http://www.w3.org/2000/svg">
<rect width="1024" height="562.777" fill="black"/>
<g opacity="0.6">
<path d="M816.495 221.858C816.404 221.041 816.745 220.873 815.63 221.019C813.741 222.529 811.284 223.401 809.088 224.363C807.574 224.464 807.791 224.386 808.519 223.245C810.715 221.712 815.198 217.35 816.37 215.046C819.396 209.106 818.088 193.234 817.61 186.098C816.722 172.911 814.629 159.723 812.49 146.704C811.363 146.379 810.783 147.587 810.225 147.822C809.611 148.079 808.997 148.18 808.519 148.381C808.394 146.603 810.829 145.607 811.113 144.534C811.488 143.102 811.909 137.308 809.736 139.813C808.564 141.167 807.631 143.068 806.243 144.478C805.913 144.813 804.73 146.01 804.536 146.155C803.683 146.804 802.864 147.397 801.692 147.274C802.067 146.301 802.431 145.842 802.83 145.037C802.966 144.757 803.501 144.746 803.968 143.359C804.969 143.024 806.107 140.317 806.243 139.444C810.794 133.013 808.473 126.615 806.653 119.769C804.844 112.98 802.067 104.568 798.95 98.2823C798.017 96.3808 793.852 88.2379 791.463 88.8978C788.038 89.8486 782.474 103.204 781.223 106.75C779.277 112.264 777.001 118.013 779.527 123.796C779.607 124.982 779.721 126.279 780.665 127.152C780.802 127.733 781.143 128.013 781.234 128.27C781.735 129.724 782.565 130.764 782.85 132.107C782.85 132.286 782.884 132.476 782.941 132.733C782.133 132.588 781.757 131.939 781.234 131.615C780.836 131.38 780.494 130.764 780.096 130.496C779.63 129.433 778.719 128.908 777.82 128.259L775.556 125.463C774.43 130.283 773.246 135.037 772.7 139.981C771.13 145.719 770.22 151.77 769.366 157.654C767.227 172.463 764.485 181.736 773.838 194.722C774.111 195.102 773.906 196.232 774.976 196.4C774.896 196.042 774.817 195.65 774.748 195.248C774.828 195.628 774.896 196.02 774.976 196.4C775.363 198.089 777.047 200.292 778.389 201.433C779.163 203.435 780.016 203.559 781.234 204.789C781.621 205.18 781.973 205.527 782.372 205.907C782.565 207.708 782.076 206.746 780.665 206.467C779.766 204.979 778.003 204.621 776.683 203.67C776.091 203.245 775.26 202.776 774.976 202.552C771.608 199.946 768.968 196.489 765.885 193.615V202.272C765.885 202.641 769.059 207.854 769.617 208.659C769.799 208.927 773.19 212.518 770.72 211.489C769.685 211.053 767.58 207.943 765.885 207.585C766.135 219.341 768.16 239.799 778.765 247.148C780.597 248.423 783.669 250.045 785.967 249.508C787.572 249.139 786.695 240.582 786.912 238.859C787.526 234.687 787.628 230.806 787.481 226.567C787.958 220.527 787.765 213.905 788.049 207.574C788.288 202.183 788.402 196.791 788.618 191.378C788.835 185.796 789.017 180.226 789.187 174.622C789.54 162.878 790.223 151.222 790.325 139.422C791.269 138.84 790.894 137.297 790.905 136.357C790.951 132.353 790.894 128.337 790.905 124.333C792.214 119.78 791.11 114.523 791.474 109.814L792.032 114.59C791.952 115.105 792.362 115.183 792.612 115.396C792.623 119.21 792.555 123.035 792.612 126.861C792.623 127.812 792.248 129.344 793.192 129.926C793.124 134.467 793.124 139.064 793.192 143.616C793.204 144.556 792.828 146.1 793.773 146.681C793.693 158.47 793.625 172.497 794.91 184.107L795.479 200.304C795.502 200.863 795.457 201.422 795.479 201.981C795.661 207.004 795.866 212.048 796.048 217.07C796.071 217.63 796.026 218.189 796.048 218.748L796.64 225.985C796.64 225.985 796.629 225.996 796.617 226.007L796.048 218.748C796.219 223.222 796.458 227.696 796.617 232.159C796.674 233.826 796.549 235.515 796.617 237.193C796.708 239.329 796.447 247.528 797.266 248.837C798.176 250.291 802.557 247.819 803.626 247.148C809.395 243.546 812.433 236.846 814.811 230.761L809.702 232.45C812.888 230.135 817.03 226.108 816.54 221.835L816.495 221.858Z" fill="white"/>
<path d="M794.303 276.879C794.621 276.509 795.372 276.632 795.452 275.492C795.543 274.228 794.052 267.707 794.303 267.382C794.394 267.27 795.327 267.841 795.486 266.588C795.793 264.317 795.509 263.009 794.303 261.23C795.145 259.754 795.133 256.387 794.906 254.776C794.712 253.468 793.893 252.785 793.711 251.488C793.085 247.103 794.712 241.522 793.176 237.215C793.176 235.728 793.188 234.229 793.176 232.741C793.108 225.337 793.358 218.335 792.607 210.952L792.038 195.315C791.196 195.27 791.037 197.317 790.98 197.888C790.764 199.812 790.969 201.769 790.912 203.693C790.912 203.883 790.912 204.062 790.912 204.252C789.82 206.769 790.4 210.326 790.343 213.189C790.195 220.639 789.478 228.066 789.774 235.538C789.592 240.728 789.854 245.985 789.774 251.175C789.774 251.734 789.785 252.293 789.774 252.852C788.056 252.539 788.67 253.714 788.636 254.788C788.568 256.532 789.364 261.991 789.126 262.282C788.887 262.584 787.783 262.271 787.476 263.736C786.895 266.454 788.466 266.845 788.636 267.382C789.501 270.123 786.816 273.478 788.636 276.319C789.091 278.735 787.191 280.279 787.51 282.695C787.681 283.97 789.717 288.097 790.343 289.73C790.616 290.435 790.753 291.229 790.923 291.968C793.199 291.419 792.289 290.927 792.619 289.73C793.29 287.292 795.748 283.288 795.941 282.069C796.123 280.961 795.11 279.529 794.598 278.187C794.53 277.785 794.439 277.348 794.314 276.89L794.303 276.879ZM792.141 206.008C792.038 205.304 791.913 204.61 791.765 203.928C792.107 204.319 792.164 205.114 792.141 206.008Z" fill="white"/>
</g>
<g opacity="0.4">
<path d="M685.36 259.058V287.715H680.959V259.058H685.36Z" fill="white"/>
<path d="M658.334 287.736C656.833 287.736 655.635 287.481 654.739 286.971C653.844 286.448 653.121 285.732 652.57 284.823C651.867 285.746 651.007 286.462 649.987 286.971C648.968 287.481 647.584 287.736 645.834 287.736H643.934V283.004H645.876C646.978 283.004 647.873 282.894 648.562 282.674C649.25 282.453 649.753 282.061 650.07 281.496C650.401 280.918 650.566 280.091 650.566 279.017C650.566 278.783 650.559 278.473 650.545 278.087C650.531 277.701 650.504 277.261 650.463 276.765C650.421 276.269 650.38 275.746 650.339 275.195L654.553 274.678L654.925 279.554C654.994 280.601 655.311 281.441 655.876 282.075C656.44 282.695 657.274 283.004 658.376 283.004C659.698 283.004 660.586 282.681 661.041 282.033C661.509 281.386 661.744 280.38 661.744 279.017C661.744 278.796 661.737 278.493 661.723 278.108C661.709 277.708 661.682 277.261 661.64 276.765C661.599 276.269 661.558 275.746 661.516 275.195L665.731 274.678L666.103 279.554C666.158 280.546 666.413 281.372 666.867 282.033C667.322 282.681 668.073 283.004 669.12 283.004C669.794 283.004 670.318 282.832 670.69 282.488C671.075 282.13 671.351 281.655 671.516 281.062C671.682 280.47 671.764 279.83 671.764 279.141C671.764 278.411 671.702 277.667 671.578 276.909C671.468 276.152 671.337 275.449 671.186 274.802C671.048 274.141 670.924 273.624 670.814 273.252L675.153 272.075C675.414 273.08 675.628 274.141 675.793 275.257C675.958 276.372 676.041 277.488 676.041 278.604C676.041 280.188 675.821 281.675 675.38 283.066C674.953 284.458 674.237 285.58 673.231 286.434C672.239 287.288 670.883 287.722 669.161 287.736C667.866 287.736 666.805 287.474 665.979 286.951C665.153 286.414 664.471 285.697 663.934 284.802C663.19 285.752 662.356 286.482 661.434 286.992C660.511 287.488 659.478 287.736 658.334 287.736Z" fill="white"/>
<path d="M632.24 283.004H644.74V287.736H632.24V283.004Z" fill="white"/>
<path d="M620.545 283.004H633.045V287.736H620.545V283.004Z" fill="white"/>
<path d="M608.852 283.004H621.352V287.736H608.852V283.004Z" fill="white"/>
<path d="M593.687 283.004H595.154V287.736H593.687V283.004ZM602.798 264.265L605.98 267.405L602.798 270.608L599.658 267.405L602.798 264.265ZM595.897 264.265L599.079 267.405L595.897 270.608L592.736 267.405L595.897 264.265ZM600.877 274.657L605.071 274.141L605.443 279.451C605.484 280.249 605.65 280.918 605.939 281.455C606.228 281.978 606.641 282.371 607.178 282.632C607.729 282.88 608.418 283.004 609.245 283.004H609.678V287.736H609.203C608.225 287.736 607.364 287.619 606.621 287.384C605.877 287.137 605.229 286.799 604.678 286.372C604.141 285.931 603.673 285.401 603.274 284.781C602.502 285.759 601.517 286.496 600.319 286.992C599.134 287.488 597.888 287.736 596.579 287.736H594.596V283.004H596.579C598.232 283.004 599.389 282.674 600.05 282.013C600.725 281.338 601.063 280.243 601.063 278.727C601.063 278.011 601.042 277.316 601.001 276.641C600.973 275.966 600.932 275.305 600.877 274.657Z" fill="white"/>
<path d="M581.992 283.004H594.492V287.736H581.992V283.004Z" fill="white"/>
<path d="M570.297 283.004H582.797V287.736H570.297V283.004Z" fill="white"/>
<path d="M558.604 283.004H571.104V287.736H558.604V283.004Z" fill="white"/>
<path d="M546.908 283.004H559.408V287.736H546.908V283.004Z" fill="white"/>
<path d="M535.215 283.004H547.715V287.736H535.215V283.004Z" fill="white"/>
<path d="M523.521 283.004H536.021V287.736H523.521V283.004Z" fill="white"/>
<path d="M511.826 283.004H524.326V287.736H511.826V283.004Z" fill="white"/>
<path d="M500.133 283.004H512.633V287.736H500.133V283.004Z" fill="white"/>
<path d="M488.438 283.004H500.937V287.736H488.438V283.004Z" fill="white"/>
<path d="M476.744 283.004H489.244V287.736H476.744V283.004Z" fill="white"/>
<path d="M465.049 283.004H477.549V287.736H465.049V283.004Z" fill="white"/>
<path d="M453.355 283.004H465.855V287.736H453.355V283.004Z" fill="white"/>
<path d="M441.662 283.004H454.162V287.736H441.662V283.004Z" fill="white"/>
<path d="M429.967 283.004H442.467V287.736H429.967V283.004Z" fill="white"/>
<path d="M418.273 283.004H430.773V287.736H418.273V283.004Z" fill="white"/>
<path d="M406.578 283.004H419.078V287.736H406.578V283.004Z" fill="white"/>
<path d="M398.604 259.058H403.004V278.438C403.004 280.174 403.294 281.372 403.872 282.033C404.464 282.681 405.463 283.004 406.868 283.004H407.385V287.736H406.868C404.031 287.736 401.944 286.999 400.608 285.525C399.272 284.037 398.604 281.744 398.604 278.645V259.058Z" fill="white"/>
<path d="M381.847 283.066C383.349 283.066 384.664 282.942 385.793 282.695C386.937 282.447 387.825 282.061 388.459 281.538C389.092 281 389.409 280.291 389.409 279.409C389.409 278.542 389.058 277.633 388.355 276.682C387.667 275.732 386.668 274.768 385.36 273.79C384.065 272.798 382.488 271.82 380.628 270.856L382.674 266.682C384.299 267.495 385.787 268.363 387.136 269.285C388.486 270.208 389.65 271.193 390.628 272.24C391.606 273.287 392.357 274.396 392.88 275.566C393.417 276.723 393.686 277.956 393.686 279.265C393.686 281.207 393.245 282.805 392.364 284.058C391.496 285.298 390.208 286.214 388.5 286.806C386.792 287.398 384.678 287.695 382.157 287.695C381.165 287.695 380.222 287.653 379.326 287.571C378.445 287.488 377.598 287.357 376.785 287.178V282.467C377.68 282.646 378.569 282.791 379.45 282.901C380.332 283.011 381.131 283.066 381.847 283.066Z" fill="white"/>
<path d="M350.727 283.005H351.718V287.736H350.727V283.005ZM354.983 290.587L358.289 293.893L354.983 297.199L351.677 293.893L354.983 290.587ZM354.487 287.736H351.16V283.005H354.487C355.713 283.005 356.546 282.64 356.987 281.909C357.441 281.179 357.669 280.25 357.669 279.12C357.669 278.197 357.572 277.213 357.379 276.166C357.187 275.105 356.987 274.044 356.78 272.984L361.16 271.868C361.408 273.053 361.601 274.224 361.739 275.381C361.89 276.538 361.966 277.64 361.966 278.686C361.966 280.422 361.732 281.971 361.264 283.335C360.795 284.699 360.017 285.773 358.929 286.558C357.841 287.343 356.36 287.736 354.487 287.736Z" fill="white"/>
<path d="M339.059 283.004H351.559V287.736H339.059V283.004Z" fill="white"/>
<path d="M327.363 283.004H339.863V287.736H327.363V283.004Z" fill="white"/>
<path d="M315.67 283.004H328.17V287.736H315.67V283.004Z" fill="white"/>
<path d="M303.975 283.004H316.475V287.736H303.975V283.004Z" fill="white"/>
<path d="M292.281 283.004H304.781V287.736H292.281V283.004Z" fill="white"/>
<path d="M280.586 283.004H293.086V287.736H280.586V283.004Z" fill="white"/>
<path d="M268.893 283.004H281.393V287.736H268.893V283.004Z" fill="white"/>
<path d="M257.199 283.004H269.699V287.736H257.199V283.004Z" fill="white"/>
<path d="M245.504 283.004H258.004V287.736H245.504V283.004Z" fill="white"/>
<path d="M237.529 259.058H241.93V278.438C241.93 280.174 242.219 281.372 242.798 282.033C243.39 282.681 244.389 283.004 245.794 283.004H246.31V287.736H245.794C242.956 287.736 240.87 286.999 239.533 285.525C238.197 284.037 237.529 281.744 237.529 278.645V259.058Z" fill="white"/>
<path d="M219.611 269.347L222.916 272.653L219.611 275.959L216.305 272.653L219.611 269.347ZM219.879 292.198C222.042 292.198 223.729 291.847 224.941 291.145C226.153 290.442 227.007 289.506 227.503 288.335C227.999 287.178 228.247 285.911 228.247 284.533C228.247 282.949 228.013 281.365 227.545 279.781C227.09 278.197 226.629 276.806 226.16 275.607L230.561 273.893C231.264 275.793 231.78 277.598 232.111 279.306C232.441 281.014 232.606 282.687 232.606 284.327C232.606 286.833 232.145 289.023 231.222 290.897C230.299 292.784 228.894 294.251 227.007 295.298C225.134 296.344 222.758 296.868 219.879 296.868C216.904 296.868 214.494 296.31 212.648 295.194C210.802 294.092 209.452 292.605 208.598 290.731C207.758 288.858 207.338 286.778 207.338 284.492C207.338 282.949 207.496 281.365 207.813 279.74C208.144 278.101 208.605 276.489 209.197 274.905L213.247 276.496C212.806 277.846 212.427 279.203 212.111 280.566C211.808 281.916 211.656 283.211 211.656 284.45C211.656 285.869 211.904 287.164 212.4 288.335C212.91 289.506 213.757 290.442 214.941 291.145C216.14 291.847 217.786 292.198 219.879 292.198Z" fill="white"/>
</g>
<path opacity="0.4" d="M815.228 431.834C814.397 431.834 813.681 431.656 813.082 431.299C812.483 430.943 812.018 430.46 811.687 429.85C811.362 429.236 811.199 428.544 811.199 427.774V427.464C811.199 426.586 811.365 425.824 811.695 425.178C812.026 424.528 812.478 424.026 813.051 423.675C813.629 423.319 814.28 423.141 815.003 423.141C815.804 423.141 816.468 423.316 816.995 423.667C817.527 424.019 817.924 424.502 818.188 425.116C818.451 425.731 818.583 426.441 818.583 427.247V428.045H812.106V426.705H816.739V426.557C816.729 426.222 816.662 425.907 816.538 425.612C816.419 425.318 816.235 425.08 815.987 424.899C815.74 424.719 815.409 424.628 814.996 424.628C814.582 424.628 814.231 424.744 813.942 424.977C813.658 425.204 813.441 425.532 813.291 425.961C813.147 426.384 813.074 426.885 813.074 427.464V427.774C813.074 428.259 813.162 428.698 813.338 429.091C813.518 429.478 813.779 429.786 814.12 430.013C814.461 430.24 814.867 430.354 815.337 430.354C815.786 430.354 816.186 430.264 816.538 430.083C816.889 429.902 817.194 429.646 817.452 429.316L818.436 430.269C818.167 430.666 817.769 431.028 817.243 431.353C816.721 431.674 816.049 431.834 815.228 431.834Z" fill="white"/>
<path opacity="0.4" d="M806.666 430.346C806.971 430.346 807.244 430.287 807.487 430.168C807.735 430.044 807.934 429.874 808.084 429.657C808.239 429.44 808.324 429.189 808.339 428.905H810.098C810.088 429.447 809.928 429.941 809.618 430.385C809.308 430.829 808.897 431.183 808.386 431.446C807.874 431.705 807.309 431.834 806.689 431.834C805.837 431.834 805.129 431.645 804.566 431.268C804.003 430.886 803.582 430.377 803.303 429.742C803.024 429.101 802.885 428.396 802.885 427.627V427.356C802.885 426.581 803.024 425.876 803.303 425.24C803.582 424.605 804.003 424.096 804.566 423.714C805.129 423.332 805.834 423.141 806.681 423.141C807.353 423.141 807.942 423.275 808.448 423.544C808.954 423.807 809.352 424.176 809.641 424.651C809.935 425.122 810.088 425.669 810.098 426.294H808.339C808.324 425.984 808.246 425.705 808.107 425.457C807.973 425.204 807.781 425.003 807.534 424.853C807.291 424.703 806.999 424.628 806.658 424.628C806.157 424.628 805.767 424.76 805.488 425.023C805.214 425.287 805.023 425.628 804.915 426.046C804.806 426.464 804.752 426.901 804.752 427.356V427.627C804.752 428.086 804.804 428.525 804.907 428.944C805.015 429.357 805.207 429.695 805.48 429.959C805.759 430.217 806.154 430.346 806.666 430.346Z" fill="white"/>
<path opacity="0.4" d="M799.66 424.892V431.679H797.793V423.296H799.575L799.66 424.892ZM802.225 423.241L802.209 424.977C802.096 424.956 801.972 424.941 801.837 424.93C801.708 424.92 801.579 424.915 801.45 424.915C801.016 424.915 800.657 424.995 800.373 425.155C800.094 425.315 799.88 425.54 799.73 425.829C799.58 426.113 799.492 426.452 799.467 426.844L799.04 426.875C799.04 426.178 799.133 425.548 799.319 424.985C799.505 424.416 799.784 423.967 800.156 423.636C800.528 423.306 800.995 423.141 801.558 423.141C801.672 423.141 801.793 423.151 801.923 423.172C802.057 423.192 802.158 423.216 802.225 423.241Z" fill="white"/>
<path opacity="0.4" d="M793.991 429.701V423.293H795.866V431.677H794.099L793.991 429.701ZM794.254 427.958L794.882 427.942C794.882 428.691 794.771 429.36 794.549 429.949C794.327 430.533 793.981 430.992 793.51 431.328C793.04 431.664 792.431 431.832 791.682 431.832C790.861 431.832 790.192 431.589 789.675 431.103C789.164 430.618 788.908 429.82 788.908 428.709V423.293H790.775V428.725C790.775 429.128 790.837 429.448 790.961 429.686C791.085 429.918 791.251 430.083 791.457 430.181C791.664 430.274 791.891 430.321 792.139 430.321C792.671 430.321 793.09 430.218 793.394 430.011C793.704 429.799 793.924 429.515 794.053 429.159C794.187 428.802 794.254 428.402 794.254 427.958Z" fill="white"/>
<path opacity="0.4" d="M779.586 427.58V427.402C779.586 426.591 779.741 425.865 780.051 425.225C780.361 424.584 780.805 424.078 781.383 423.706C781.962 423.329 782.659 423.141 783.475 423.141C784.297 423.141 784.997 423.329 785.575 423.706C786.159 424.078 786.606 424.584 786.915 425.225C787.225 425.865 787.38 426.591 787.38 427.402V427.58C787.38 428.386 787.225 429.112 786.915 429.757C786.606 430.398 786.161 430.904 785.583 431.276C785.004 431.648 784.307 431.834 783.491 431.834C782.67 431.834 781.967 431.648 781.383 431.276C780.805 430.904 780.361 430.398 780.051 429.757C779.741 429.112 779.586 428.386 779.586 427.58ZM781.453 427.402V427.58C781.453 428.081 781.523 428.544 781.662 428.967C781.807 429.385 782.029 429.721 782.329 429.974C782.628 430.222 783.016 430.346 783.491 430.346C783.956 430.346 784.338 430.222 784.638 429.974C784.937 429.721 785.157 429.385 785.296 428.967C785.441 428.544 785.513 428.081 785.513 427.58V427.402C785.513 426.906 785.441 426.449 785.296 426.031C785.152 425.607 784.929 425.269 784.63 425.016C784.335 424.757 783.951 424.628 783.475 424.628C783.005 424.628 782.621 424.757 782.321 425.016C782.027 425.269 781.807 425.607 781.662 426.031C781.523 426.449 781.453 426.906 781.453 427.402Z" fill="white"/>
<path opacity="0.4" d="M776.487 429.409C776.487 429.223 776.44 429.055 776.347 428.905C776.254 428.75 776.076 428.611 775.813 428.487C775.554 428.363 775.172 428.249 774.666 428.146C774.072 428.017 773.548 427.849 773.093 427.642C772.644 427.436 772.293 427.172 772.039 426.852C771.792 426.532 771.668 426.136 771.668 425.666C771.668 425.207 771.797 424.788 772.055 424.411C772.318 424.029 772.693 423.722 773.178 423.489C773.664 423.257 774.237 423.141 774.898 423.141C775.601 423.141 776.203 423.259 776.704 423.497C777.21 423.729 777.597 424.047 777.866 424.45C778.135 424.848 778.269 425.297 778.269 425.798H776.402C776.402 425.462 776.275 425.165 776.022 424.907C775.774 424.649 775.4 424.52 774.898 424.52C774.578 424.52 774.312 424.571 774.1 424.675C773.894 424.773 773.739 424.902 773.636 425.062C773.537 425.222 773.488 425.398 773.488 425.589C773.488 425.775 773.537 425.938 773.636 426.077C773.739 426.211 773.914 426.333 774.162 426.441C774.416 426.545 774.769 426.645 775.224 426.743C775.864 426.878 776.414 427.051 776.874 427.263C777.339 427.469 777.695 427.738 777.943 428.068C778.191 428.394 778.315 428.807 778.315 429.308C778.315 429.799 778.176 430.235 777.897 430.617C777.618 431 777.223 431.299 776.712 431.516C776.205 431.728 775.609 431.834 774.922 431.834C774.162 431.834 773.519 431.7 772.992 431.431C772.466 431.157 772.065 430.808 771.792 430.385C771.523 429.956 771.389 429.512 771.389 429.052H773.194C773.215 429.398 773.31 429.675 773.481 429.881C773.656 430.083 773.873 430.23 774.131 430.323C774.395 430.411 774.666 430.455 774.945 430.455C775.281 430.455 775.562 430.411 775.789 430.323C776.017 430.23 776.19 430.106 776.309 429.951C776.427 429.791 776.487 429.61 776.487 429.409Z" fill="white"/>
<path opacity="0.4" d="M760.678 425.085V431.679H758.811V423.296H760.569L760.678 425.085ZM760.345 427.177L759.74 427.17C759.751 426.369 759.895 425.666 760.174 425.062C760.453 424.458 760.841 423.988 761.336 423.652C761.837 423.311 762.421 423.141 763.087 423.141C763.63 423.141 764.1 423.244 764.498 423.451C764.895 423.652 765.203 423.983 765.42 424.442C765.642 424.897 765.753 425.504 765.753 426.263V431.679H763.878V426.255C763.878 425.852 763.818 425.535 763.699 425.302C763.586 425.065 763.418 424.897 763.196 424.799C762.979 424.695 762.708 424.644 762.382 424.644C762.062 424.644 761.775 424.711 761.522 424.845C761.269 424.979 761.055 425.163 760.879 425.395C760.709 425.628 760.577 425.896 760.484 426.201C760.391 426.506 760.345 426.831 760.345 427.177Z" fill="white"/>
<path opacity="0.4" d="M754.013 431.834C753.182 431.834 752.466 431.656 751.867 431.299C751.268 430.943 750.803 430.46 750.472 429.85C750.147 429.236 749.984 428.544 749.984 427.774V427.464C749.984 426.586 750.15 425.824 750.48 425.178C750.811 424.528 751.263 424.026 751.836 423.675C752.415 423.319 753.065 423.141 753.789 423.141C754.589 423.141 755.253 423.316 755.78 423.667C756.312 424.019 756.71 424.502 756.973 425.116C757.236 425.731 757.368 426.441 757.368 427.247V428.045H750.891V426.705H755.524V426.557C755.514 426.222 755.447 425.907 755.323 425.612C755.204 425.318 755.021 425.08 754.773 424.899C754.525 424.719 754.194 424.628 753.781 424.628C753.368 424.628 753.016 424.744 752.727 424.977C752.443 425.204 752.226 425.532 752.076 425.961C751.932 426.384 751.859 426.885 751.859 427.464V427.774C751.859 428.259 751.947 428.698 752.123 429.091C752.304 429.478 752.564 429.786 752.905 430.013C753.246 430.24 753.652 430.354 754.122 430.354C754.571 430.354 754.971 430.264 755.323 430.083C755.674 429.902 755.979 429.646 756.237 429.316L757.221 430.269C756.952 430.666 756.555 431.028 756.028 431.353C755.506 431.674 754.835 431.834 754.013 431.834Z" fill="white"/>
<path opacity="0.4" d="M743.272 424.907V434.902H741.404V423.296H743.124L743.272 424.907ZM748.734 427.41V427.572C748.734 428.383 748.607 429.112 748.354 429.757C748.106 430.398 747.74 430.904 747.254 431.276C746.768 431.648 746.177 431.834 745.48 431.834C744.782 431.834 744.201 431.666 743.736 431.33C743.277 430.989 742.918 430.522 742.659 429.928C742.401 429.329 742.226 428.642 742.133 427.867V427.239C742.226 426.418 742.401 425.703 742.659 425.093C742.923 424.478 743.282 424.001 743.736 423.66C744.196 423.314 744.772 423.141 745.464 423.141C746.172 423.141 746.768 423.319 747.254 423.675C747.74 424.032 748.106 424.53 748.354 425.171C748.607 425.811 748.734 426.557 748.734 427.41ZM746.867 427.572V427.41C746.867 426.893 746.799 426.428 746.665 426.015C746.536 425.597 746.332 425.264 746.053 425.016C745.774 424.768 745.41 424.644 744.961 424.644C744.63 424.644 744.346 424.701 744.108 424.814C743.871 424.923 743.672 425.075 743.512 425.271C743.352 425.468 743.228 425.697 743.14 425.961C743.052 426.219 742.99 426.501 742.954 426.805V428.308C743.016 428.68 743.122 429.021 743.272 429.331C743.421 429.641 743.633 429.889 743.907 430.075C744.186 430.256 744.542 430.346 744.976 430.346C745.425 430.346 745.787 430.22 746.061 429.967C746.34 429.713 746.544 429.378 746.673 428.959C746.802 428.536 746.867 428.073 746.867 427.572Z" fill="white"/>
<path opacity="0.4" d="M732.033 427.58V427.402C732.033 426.591 732.188 425.865 732.498 425.225C732.808 424.584 733.252 424.078 733.831 423.706C734.409 423.329 735.107 423.141 735.923 423.141C736.744 423.141 737.444 423.329 738.022 423.706C738.606 424.078 739.053 424.584 739.363 425.225C739.673 425.865 739.828 426.591 739.828 427.402V427.58C739.828 428.386 739.673 429.112 739.363 429.757C739.053 430.398 738.609 430.904 738.03 431.276C737.452 431.648 736.754 431.834 735.938 431.834C735.117 431.834 734.414 431.648 733.831 431.276C733.252 430.904 732.808 430.398 732.498 429.757C732.188 429.112 732.033 428.386 732.033 427.58ZM733.9 427.402V427.58C733.9 428.081 733.97 428.544 734.11 428.967C734.254 429.385 734.476 429.721 734.776 429.974C735.076 430.222 735.463 430.346 735.938 430.346C736.403 430.346 736.785 430.222 737.085 429.974C737.384 429.721 737.604 429.385 737.743 428.967C737.888 428.544 737.96 428.081 737.96 427.58V427.402C737.96 426.906 737.888 426.449 737.743 426.031C737.599 425.607 737.377 425.269 737.077 425.016C736.783 424.757 736.398 424.628 735.923 424.628C735.453 424.628 735.068 424.757 734.768 425.016C734.474 425.269 734.254 425.607 734.11 426.031C733.97 426.449 733.9 426.906 733.9 427.402Z" fill="white"/>
<g opacity="0.4">
<g clip-path="url(#clip0_168_268)">
<path fill-rule="evenodd" clip-rule="evenodd" d="M229.787 428.908C229.787 427.421 227.925 426.012 225.07 425.137C225.729 422.227 225.435 419.912 224.145 419.17C223.848 418.997 223.5 418.915 223.12 418.915V419.936C223.331 419.936 223.5 419.978 223.643 420.055C224.266 420.411 224.534 421.77 224.324 423.518C224.273 423.948 224.191 424.401 224.091 424.863C223.194 424.644 222.214 424.474 221.186 424.364C220.568 423.518 219.927 422.749 219.282 422.077C220.773 420.689 222.172 419.93 223.124 419.93V418.909C221.865 418.909 220.219 419.806 218.553 421.363C216.887 419.815 215.241 418.927 213.982 418.927V419.949C214.929 419.949 216.334 420.703 217.826 422.081C217.185 422.753 216.545 423.517 215.937 424.364C214.903 424.474 213.924 424.644 213.027 424.867C212.921 424.41 212.844 423.966 212.789 423.54C212.574 421.792 212.841 420.433 213.458 420.071C213.595 419.989 213.774 419.952 213.984 419.952V418.933C213.6 418.933 213.252 419.015 212.95 419.189C211.664 419.93 211.375 422.241 212.04 425.143C209.19 426.019 207.338 427.424 207.338 428.908C207.338 430.395 209.199 431.803 212.055 432.679C211.395 435.589 211.69 437.903 212.979 438.645C213.277 438.819 213.624 438.901 214.01 438.901C215.268 438.901 216.914 438.004 218.581 436.447C220.247 437.995 221.893 438.883 223.152 438.883C223.535 438.883 223.884 438.8 224.186 438.627C225.472 437.885 225.76 435.574 225.095 432.673C227.934 431.8 229.787 430.389 229.787 428.908ZM220.649 428.908C220.649 427.753 219.713 426.816 218.557 426.816C217.402 426.816 216.465 427.751 216.465 428.908C216.465 430.064 217.4 431 218.557 431C219.713 430.998 220.649 430.062 220.649 428.908ZM223.829 425.855C223.659 426.445 223.449 427.053 223.212 427.662C223.024 427.296 222.828 426.929 222.613 426.564C222.402 426.199 222.178 425.84 221.953 425.493C222.603 425.59 223.23 425.709 223.829 425.855ZM221.734 430.729C221.378 431.347 221.01 431.933 220.63 432.478C219.949 432.538 219.258 432.569 218.562 432.569C217.872 432.569 217.181 432.536 216.503 432.481C216.123 431.937 215.753 431.356 215.396 430.742C215.049 430.143 214.733 429.534 214.445 428.921C214.728 428.307 215.049 427.695 215.391 427.096C215.747 426.478 216.114 425.892 216.494 425.347C217.176 425.287 217.866 425.256 218.562 425.256C219.253 425.256 219.943 425.289 220.621 425.344C221.001 425.888 221.372 426.469 221.728 427.083C222.075 427.682 222.392 428.29 222.68 428.904C222.392 429.516 222.077 430.128 221.734 430.729ZM223.212 430.134C223.458 430.747 223.669 431.359 223.844 431.955C223.245 432.101 222.613 432.225 221.959 432.32C222.183 431.968 222.406 431.606 222.618 431.235C222.826 430.87 223.024 430.499 223.212 430.134ZM218.571 435.015C218.146 434.577 217.72 434.087 217.3 433.552C217.711 433.57 218.133 433.585 218.559 433.585C218.988 433.585 219.414 433.576 219.83 433.552C219.417 434.087 218.992 434.577 218.571 435.015ZM215.168 432.32C214.518 432.224 213.891 432.105 213.292 431.959C213.462 431.369 213.672 430.76 213.909 430.152C214.097 430.517 214.293 430.884 214.508 431.25C214.724 431.617 214.943 431.973 215.168 432.32ZM218.548 422.799C218.973 423.237 219.399 423.727 219.819 424.262C219.408 424.244 218.986 424.229 218.561 424.229C218.131 424.229 217.706 424.238 217.289 424.262C217.702 423.727 218.128 423.237 218.548 422.799ZM215.162 425.493C214.938 425.846 214.715 426.208 214.503 426.578C214.293 426.944 214.096 427.311 213.907 427.676C213.661 427.063 213.451 426.451 213.275 425.855C213.876 425.713 214.508 425.59 215.162 425.493ZM211.021 431.222C209.4 430.532 208.354 429.626 208.354 428.908C208.354 428.19 209.402 427.278 211.021 426.593C211.414 426.423 211.845 426.273 212.289 426.131C212.55 427.028 212.893 427.961 213.319 428.917C212.899 429.869 212.559 430.797 212.303 431.69C211.85 431.548 211.419 431.392 211.021 431.222ZM213.484 437.761C212.861 437.405 212.592 436.045 212.802 434.297C212.853 433.868 212.936 433.415 213.036 432.953C213.933 433.172 214.912 433.342 215.941 433.451C216.558 434.297 217.199 435.066 217.844 435.739C216.352 437.125 214.952 437.885 214.001 437.885C213.794 437.88 213.621 437.839 213.484 437.761ZM224.337 434.275C224.553 436.024 224.286 437.383 223.669 437.744C223.532 437.827 223.352 437.863 223.142 437.863C222.196 437.863 220.791 437.109 219.299 435.731C219.94 435.059 220.579 434.295 221.188 433.448C222.222 433.338 223.201 433.168 224.098 432.943C224.204 433.406 224.286 433.85 224.337 434.275ZM226.098 431.222C225.706 431.392 225.274 431.542 224.83 431.685C224.569 430.788 224.226 429.854 223.8 428.899C224.22 427.947 224.56 427.019 224.816 426.125C225.269 426.268 225.698 426.423 226.102 426.591C227.722 427.282 228.769 428.188 228.769 428.906C228.766 429.626 227.719 430.536 226.098 431.222Z" fill="white"/>
</g>
<path fill-rule="evenodd" clip-rule="evenodd" d="M375.917 424.489C374.276 424.907 373.157 425.221 371.541 425.635C371.149 425.739 371.123 425.765 370.783 425.373C370.392 424.929 370.104 424.646 369.56 424.385C367.918 423.579 366.329 423.81 364.844 424.777C363.072 425.922 362.161 427.616 362.188 429.729C362.214 431.815 363.646 433.531 365.706 433.819C367.478 434.054 368.963 433.427 370.135 432.098C370.37 431.811 370.579 431.497 370.84 431.136C369.904 431.136 368.728 431.136 365.811 431.136C365.262 431.136 365.131 430.796 365.314 430.356C365.654 429.55 366.277 428.191 366.642 427.516C366.721 427.359 366.904 427.098 367.295 427.098H376.78C376.727 427.804 376.727 428.505 376.623 429.211C376.335 431.088 375.634 432.808 374.485 434.32C372.608 436.794 370.161 438.331 367.06 438.75C364.509 439.089 362.135 438.593 360.054 437.029C358.125 435.57 357.032 433.64 356.744 431.245C356.405 428.405 357.241 425.852 358.961 423.609C360.812 421.188 363.259 419.65 366.255 419.101C368.702 418.657 371.049 418.944 373.157 420.377C374.537 421.288 375.526 422.542 376.179 424.054C376.335 424.284 376.231 424.411 375.917 424.489Z" fill="white"/>
<path d="M384.543 438.902C382.174 438.85 380.009 438.17 378.185 436.611C376.648 435.283 375.685 433.588 375.372 431.58C374.902 428.636 375.712 426.031 377.484 423.71C379.387 421.209 381.677 419.907 384.778 419.358C387.434 418.888 389.938 419.149 392.202 420.687C394.262 422.094 395.538 423.997 395.877 426.497C396.322 430.017 395.303 432.883 392.881 435.33C391.161 437.077 389.054 438.17 386.628 438.667C385.923 438.798 385.222 438.824 384.543 438.902ZM390.743 428.375C390.717 428.035 390.717 427.773 390.665 427.516C390.195 424.938 387.826 423.479 385.348 424.049C382.927 424.598 381.364 426.136 380.789 428.584C380.319 430.618 381.311 432.674 383.184 433.51C384.617 434.137 386.049 434.059 387.43 433.353C389.494 432.282 390.613 430.613 390.743 428.375Z" fill="white"/>
<path d="M302.097 431.202C299.713 431.693 299.549 430.886 299.549 430.886C302.066 427.152 303.117 422.41 302.209 421.25C299.733 418.085 295.446 419.582 295.375 419.621L295.351 419.625C294.88 419.527 294.353 419.469 293.761 419.459C292.683 419.441 291.864 419.742 291.245 420.212C291.245 420.212 283.597 417.06 283.953 424.176C284.03 425.689 286.122 435.628 288.619 432.626C289.532 431.527 290.413 430.6 290.413 430.6C290.851 430.891 291.376 431.039 291.925 430.986L291.967 430.95C291.954 431.086 291.96 431.22 291.983 431.378C291.341 432.097 291.529 432.222 290.243 432.487C288.941 432.756 289.706 433.233 290.205 433.358C290.81 433.509 292.209 433.724 293.156 432.4L293.119 432.551C293.371 432.753 293.548 433.864 293.519 434.871C293.49 435.878 293.47 436.57 293.668 437.11C293.867 437.65 294.065 438.866 295.756 438.503C297.168 438.2 297.9 437.416 298.002 436.108C298.074 435.177 298.238 435.315 298.248 434.484L298.38 434.09C298.531 432.829 298.404 432.422 299.274 432.611L299.486 432.629C300.127 432.658 300.964 432.527 301.456 432.297C302.511 431.807 303.141 430.986 302.097 431.202Z" fill="white"/>
<path d="M292.964 431.917C292.969 431.754 293.104 431.626 293.267 431.631C293.429 431.635 293.558 431.77 293.553 431.933C293.519 433.142 293.525 434.354 293.569 435.324C293.61 436.198 293.68 436.855 293.777 437.099C293.881 437.358 294.042 437.741 294.352 437.999C294.653 438.253 295.116 438.408 295.855 438.25C296.501 438.112 296.935 437.915 297.224 437.614C297.511 437.316 297.673 436.894 297.774 436.305C297.849 435.876 297.952 435.126 298.044 434.379C298.161 433.445 298.269 432.501 298.292 432.197C298.303 432.034 298.444 431.912 298.607 431.925C298.77 431.936 298.892 432.078 298.879 432.241C298.856 432.537 298.749 433.492 298.627 434.454C298.529 435.225 298.425 435.99 298.353 436.405C298.231 437.109 298.025 437.628 297.646 438.022C297.268 438.414 296.74 438.661 295.973 438.826C295.022 439.029 294.394 438.806 293.969 438.448C293.551 438.097 293.353 437.631 293.227 437.317C293.104 437.01 293.021 436.284 292.977 435.349C292.935 434.371 292.93 433.142 292.964 431.917Z" fill="black"/>
<path d="M291.341 419.886C291.493 419.946 291.566 420.117 291.506 420.269C291.445 420.42 291.275 420.493 291.123 420.433C291.104 420.425 283.897 417.48 284.231 424.131C284.271 424.953 284.922 428.315 285.911 430.66C286.224 431.398 286.567 432.03 286.931 432.433C287.235 432.772 287.546 432.934 287.845 432.827C288.011 432.767 288.189 432.632 288.376 432.407C289.292 431.306 290.124 430.435 290.128 430.433C290.24 430.316 290.425 430.311 290.543 430.424C290.66 430.536 290.665 430.721 290.552 430.839C290.551 430.84 289.737 431.688 288.828 432.783C288.569 433.095 288.306 433.289 288.041 433.383C287.478 433.584 286.96 433.349 286.492 432.829C286.082 432.375 285.705 431.686 285.369 430.887C284.353 428.481 283.684 425.012 283.642 424.159C283.263 416.583 291.319 419.876 291.341 419.886Z" fill="black"/>
<path d="M295.52 419.841L295.082 419.362C295.118 419.349 295.154 419.338 295.189 419.328C295.285 419.297 295.389 419.266 295.502 419.234C295.666 419.185 295.907 419.122 296.201 419.065C297.67 418.78 300.537 418.625 302.425 421.04C302.959 421.722 302.915 423.409 302.363 425.407C301.875 427.176 300.995 429.215 299.778 431.021C299.687 431.156 299.504 431.192 299.369 431.101C299.234 431.01 299.198 430.826 299.289 430.691C300.47 428.938 301.322 426.961 301.796 425.249C302.3 423.424 302.38 421.935 301.962 421.401C300.266 419.235 297.652 419.382 296.31 419.644C296.035 419.698 295.816 419.755 295.666 419.798L295.52 419.841Z" fill="black"/>
<path d="M299.816 430.767C299.819 430.775 299.82 430.783 299.822 430.792C299.822 430.793 299.923 431.319 302.023 430.886C302.321 430.824 302.532 430.837 302.669 430.904C302.846 430.988 302.923 431.13 302.911 431.312C302.905 431.423 302.853 431.542 302.766 431.66C302.568 431.932 302.114 432.284 301.563 432.539C301.15 432.731 300.52 432.86 299.942 432.892C299.602 432.912 299.277 432.899 299.018 432.847C298.693 432.782 298.446 432.647 298.343 432.427C298.316 432.368 298.299 432.305 298.296 432.237C298.231 431.094 298.787 430.894 299.176 430.783C299.136 430.725 299.08 430.655 299.018 430.578C298.822 430.333 298.569 430.017 298.369 429.534C298.338 429.461 298.249 429.298 298.129 429.083C297.619 428.17 296.617 426.371 296.814 425.142C296.954 424.265 297.623 423.682 299.293 423.857L299.277 423.808C299.197 423.582 299.071 423.285 298.887 422.954C298.158 421.626 296.569 419.774 293.746 419.728C289.44 419.659 289.582 425.09 289.582 425.105C289.585 425.267 289.455 425.401 289.292 425.404C289.129 425.407 288.996 425.277 288.993 425.114C288.993 425.097 288.833 419.06 293.754 419.139C296.861 419.19 298.605 421.217 299.402 422.669C299.601 423.03 299.742 423.359 299.832 423.614C299.933 423.901 299.97 424.125 299.954 424.224C299.931 424.371 299.85 424.462 299.71 424.49L299.604 424.491C298.072 424.245 297.493 424.621 297.395 425.233C297.231 426.263 298.168 427.942 298.643 428.797C298.771 429.028 298.869 429.203 298.913 429.311C299.082 429.719 299.303 429.996 299.476 430.214C299.637 430.411 299.764 430.57 299.816 430.767ZM302.142 431.462C300.585 431.784 299.859 431.548 299.526 431.294C299.48 431.309 299.432 431.322 299.38 431.337C299.171 431.395 298.848 431.486 298.882 432.186C298.906 432.212 298.997 432.24 299.131 432.267C299.344 432.31 299.617 432.319 299.908 432.303C300.417 432.274 300.966 432.165 301.315 432.002C301.675 431.835 301.976 431.633 302.161 431.457L302.142 431.462Z" fill="black"/>
<path d="M292.181 431.548C292.061 431.683 291.962 431.808 291.877 431.915C291.516 432.374 291.404 432.517 290.283 432.748C290.081 432.791 289.945 432.831 289.86 432.872C289.964 432.947 290.12 433.009 290.257 433.043C290.534 433.113 290.992 433.196 291.484 433.113C291.962 433.031 292.478 432.786 292.896 432.2C292.909 432.18 292.92 432.159 292.93 432.138C292.972 432.036 292.962 431.907 292.92 431.785C292.874 431.655 292.791 431.541 292.695 431.471C292.673 431.455 292.65 431.442 292.626 431.432L292.611 431.425C292.551 431.401 292.484 431.375 292.427 431.38C292.365 431.386 292.287 431.429 292.181 431.548ZM291.414 431.549C291.493 431.448 291.586 431.331 291.726 431.173C291.737 431.159 291.75 431.144 291.763 431.131C291.98 430.897 292.186 430.809 292.377 430.793C292.565 430.776 292.712 430.83 292.835 430.882C292.84 430.884 292.845 430.885 292.852 430.889C292.915 430.915 292.977 430.95 293.037 430.993C293.231 431.131 293.39 431.351 293.476 431.59C293.564 431.839 293.579 432.117 293.475 432.364C293.449 432.426 293.416 432.485 293.375 432.542C292.848 433.28 292.191 433.59 291.583 433.694C290.986 433.796 290.442 433.697 290.114 433.616C289.875 433.555 289.579 433.422 289.405 433.259C289.302 433.163 289.232 433.049 289.213 432.922C289.19 432.771 289.235 432.625 289.374 432.495C289.507 432.369 289.754 432.255 290.163 432.171C291.072 431.984 291.153 431.881 291.414 431.549Z" fill="black"/>
<path d="M292.208 431.291C292.232 431.452 292.122 431.604 291.961 431.626C291.8 431.649 291.648 431.54 291.626 431.379C291.619 431.34 291.616 431.301 291.613 431.26C291.515 431.257 291.419 431.251 291.325 431.236C290.694 431.148 290.123 430.829 289.693 430.357C289.269 429.892 288.982 429.277 288.916 428.59C288.891 428.346 288.896 428.092 288.932 427.837C289.077 426.805 289.021 425.883 288.994 425.404C288.985 425.274 288.981 425.176 288.981 425.102C288.982 424.908 289.469 424.482 290.11 424.218C290.399 424.099 290.723 424 291.043 423.951C291.382 423.901 291.723 423.906 292.031 424.002C292.512 424.153 292.895 424.509 293.041 425.191C293.57 427.633 293.096 428.683 292.727 429.505C292.664 429.646 292.603 429.78 292.558 429.9C292.556 429.908 292.553 429.915 292.55 429.923C292.395 430.339 292.621 429.729 292.504 430.04C292.32 430.541 292.159 430.971 292.208 431.291ZM291.676 430.673C291.74 430.411 291.844 430.134 291.954 429.837C292.042 429.602 291.813 430.216 291.997 429.719C292 429.711 292.003 429.703 292.006 429.695C292.063 429.544 292.125 429.409 292.189 429.265C292.524 428.522 292.95 427.572 292.463 425.32C292.369 424.882 292.14 424.657 291.853 424.568C291.639 424.501 291.387 424.499 291.128 424.539C290.851 424.581 290.575 424.665 290.328 424.766C289.893 424.944 289.565 425.093 289.565 425.106C289.565 425.149 289.569 425.245 289.578 425.373C289.607 425.87 289.664 426.831 289.513 427.921C289.483 428.135 289.478 428.341 289.498 428.54C289.552 429.093 289.783 429.589 290.126 429.965C290.464 430.336 290.912 430.588 291.403 430.657C291.494 430.666 291.585 430.673 291.676 430.673Z" fill="black"/>
<path d="M291.2 425.063C291.187 425.159 291.377 425.418 291.624 425.452C291.872 425.486 292.085 425.285 292.098 425.189C292.111 425.093 291.92 424.985 291.673 424.951C291.426 424.917 291.213 424.967 291.2 425.063Z" fill="black"/>
<path d="M291.302 425.077C291.299 425.098 291.333 425.153 291.39 425.213C291.453 425.28 291.543 425.34 291.642 425.355H291.644C291.741 425.368 291.832 425.335 291.901 425.288C291.964 425.246 292.003 425.2 292.008 425.174C292.008 425.169 291.984 425.155 291.943 425.132C291.876 425.095 291.779 425.064 291.667 425.047H291.663C291.553 425.033 291.45 425.036 291.377 425.054C291.331 425.065 291.302 425.073 291.302 425.077ZM291.248 425.348C291.152 425.248 291.099 425.127 291.109 425.052V425.049C291.122 424.956 291.205 424.893 291.331 424.862C291.427 424.839 291.554 424.834 291.689 424.852C291.691 424.852 291.693 424.852 291.694 424.852C291.831 424.872 291.953 424.911 292.039 424.96C292.153 425.023 292.216 425.109 292.203 425.2C292.194 425.272 292.12 425.376 292.011 425.449C291.909 425.519 291.769 425.57 291.618 425.549H291.616C291.466 425.529 291.338 425.443 291.248 425.348Z" fill="black"/>
<path d="M298.758 424.867C298.771 424.963 298.581 425.222 298.333 425.256C298.084 425.29 297.873 425.088 297.86 424.992C297.847 424.896 298.037 424.789 298.286 424.755C298.532 424.721 298.743 424.771 298.758 424.867Z" fill="black"/>
<path d="M298.809 424.858C298.817 424.92 298.768 425.026 298.682 425.117C298.599 425.205 298.479 425.284 298.342 425.302H298.34C298.204 425.32 298.077 425.274 297.982 425.211C297.885 425.146 297.821 425.056 297.812 424.996C297.802 424.926 297.856 424.858 297.952 424.804C298.033 424.759 298.148 424.721 298.279 424.703C298.409 424.685 298.531 424.69 298.622 424.711C298.729 424.736 298.799 424.786 298.809 424.858ZM298.61 425.048C298.677 424.978 298.716 424.907 298.711 424.871C298.708 424.845 298.666 424.822 298.601 424.806C298.521 424.786 298.412 424.783 298.293 424.799C298.176 424.816 298.072 424.85 298 424.889C297.942 424.921 297.908 424.956 297.911 424.982C297.916 425.017 297.965 425.078 298.039 425.128C298.116 425.18 298.22 425.218 298.331 425.203H298.332C298.441 425.188 298.54 425.122 298.61 425.048Z" fill="black"/>
<path d="M299.347 424.213C299.339 424.05 299.465 423.912 299.627 423.904C299.79 423.896 299.928 424.021 299.936 424.184C299.961 424.639 299.905 425 299.847 425.38C299.803 425.663 299.757 425.959 299.748 426.289C299.738 426.603 299.779 426.951 299.822 427.309C299.936 428.251 300.057 429.26 299.357 430.303C299.266 430.438 299.084 430.474 298.949 430.385C298.814 430.294 298.778 430.111 298.868 429.976C299.443 429.116 299.336 428.219 299.235 427.379C299.19 427.005 299.146 426.641 299.159 426.273C299.17 425.892 299.217 425.588 299.263 425.293C299.318 424.939 299.369 424.603 299.347 424.213Z" fill="black"/>
<path fill-rule="evenodd" clip-rule="evenodd" d="M338.17 434.294C337.276 434.236 336.381 434.373 335.544 434.695C335.342 434.78 335.018 434.78 334.99 435.041C335.097 435.149 335.109 435.33 335.207 435.483C335.391 435.802 335.628 436.086 335.908 436.322C336.192 436.543 336.477 436.764 336.778 436.956C337.304 437.286 337.901 437.478 338.411 437.812C338.712 438.005 339.009 438.25 339.309 438.458C339.456 438.567 339.551 438.748 339.741 438.816V438.776C339.646 438.651 339.618 438.47 339.523 438.334L339.127 437.932C338.73 437.398 338.255 436.928 337.719 436.539C337.284 436.234 336.335 435.82 336.161 435.334L336.133 435.306C336.45 435.259 336.763 435.184 337.067 435.081C337.529 434.96 337.949 434.989 338.419 434.864C338.637 434.808 338.855 434.74 339.072 434.671V434.547C338.827 434.298 338.653 433.969 338.396 433.744C337.694 433.123 336.947 432.556 336.161 432.049C335.741 431.776 335.2 431.595 334.753 431.362C334.59 431.278 334.321 431.238 334.226 431.097C334.003 430.765 333.816 430.41 333.669 430.037C333.273 429.282 332.878 428.43 332.561 427.627C332.364 427.08 332.135 426.545 331.877 426.025C330.618 423.853 328.801 422.071 326.62 420.868C326.072 420.598 325.488 420.408 324.887 420.306C324.551 420.306 324.211 420.262 323.874 420.25C323.655 420.105 323.446 419.944 323.249 419.768C322.458 419.27 320.481 418.198 319.919 419.615C319.555 420.515 320.461 421.394 320.773 421.848C321.034 422.169 321.265 422.515 321.462 422.88C321.556 423.117 321.584 423.366 321.679 423.611C321.878 424.241 322.113 424.857 322.383 425.459C322.53 425.756 322.698 426.042 322.886 426.314C322.992 426.467 323.182 426.535 323.222 426.784C323.073 427.112 322.969 427.459 322.913 427.816C322.423 429.374 322.613 431.302 323.309 432.446C323.522 432.792 324.041 433.551 324.729 433.25C325.338 433.005 325.204 432.218 325.382 431.531C325.421 431.362 325.382 431.254 325.473 431.129V431.153C325.662 431.555 325.868 431.912 326.03 432.298C326.51 433.015 327.104 433.648 327.787 434.169C328.111 434.418 328.368 434.844 328.776 434.997V434.972H328.748C328.656 434.867 328.551 434.773 328.435 434.695C328.178 434.44 327.943 434.163 327.731 433.868C327.157 433.076 326.65 432.237 326.216 431.358C325.999 430.928 325.821 430.459 325.635 430.033C325.552 429.868 325.552 429.631 325.417 429.539C325.162 429.819 324.94 430.129 324.757 430.463C324.53 431.134 324.397 431.834 324.361 432.543C324.306 432.543 324.333 432.543 324.306 432.571C323.874 432.458 323.724 432.005 323.562 431.619C323.14 430.437 323.097 429.149 323.439 427.941C323.534 427.651 323.942 426.736 323.776 426.467C323.696 426.202 323.424 426.065 323.277 425.844C323.087 425.568 322.924 425.273 322.791 424.965C322.466 424.19 322.3 423.338 321.952 422.555C321.754 422.183 321.527 421.829 321.272 421.495C320.99 421.163 320.741 420.804 320.528 420.423C320.461 420.27 320.366 420.021 320.473 419.856C320.481 419.809 320.504 419.767 320.538 419.734C320.572 419.701 320.616 419.681 320.662 419.676C320.84 419.523 321.339 419.716 321.517 419.8C321.998 419.985 322.458 420.225 322.886 420.515C323.075 420.652 323.281 420.917 323.518 420.981H323.803C324.238 421.077 324.725 421.009 325.132 421.133C325.819 421.366 326.475 421.685 327.082 422.085C328.876 423.249 330.333 424.876 331.303 426.8C331.469 427.113 331.537 427.406 331.699 427.736C331.984 428.41 332.336 429.101 332.62 429.744C332.871 430.395 333.193 431.014 333.582 431.591C333.787 431.88 334.598 432.033 334.962 432.185C335.282 432.302 335.594 432.436 335.9 432.587C336.359 432.876 336.817 433.205 337.252 433.523C337.466 433.691 338.146 434.033 338.186 434.326L338.17 434.294Z" fill="white"/>
<path d="M256.707 438.901C262.227 438.901 266.703 434.426 266.703 428.905C266.703 423.384 262.227 418.909 256.707 418.909C251.186 418.909 246.711 423.384 246.711 428.905C246.711 434.426 251.186 438.901 256.707 438.901Z" fill="white"/>
<path d="M263.311 436.405L254.385 424.907H252.703V432.901H254.049V426.616L262.255 437.218C262.624 436.971 262.977 436.699 263.311 436.405Z" fill="url(#paint0_linear_168_268)"/>
<path fill-rule="evenodd" clip-rule="evenodd" d="M259.488 424.907H260.821V432.904H259.488V424.907Z" fill="url(#paint1_linear_168_268)"/>
</g>
<path opacity="0.4" d="M655.288 423.271V432.792H653.801V423.271H655.288ZM655.028 429.19L654.545 429.184C654.549 428.564 654.66 428.013 654.879 427.529C655.098 427.042 655.404 426.659 655.797 426.383C656.189 426.102 656.648 425.961 657.173 425.961C657.615 425.961 657.999 426.044 658.326 426.209C658.652 426.374 658.904 426.643 659.082 427.015C659.264 427.383 659.355 427.872 659.355 428.484V432.792H657.855V428.471C657.855 428.149 657.807 427.893 657.712 427.703C657.621 427.513 657.487 427.376 657.309 427.294C657.131 427.207 656.914 427.164 656.658 427.164C656.39 427.164 656.152 427.217 655.945 427.325C655.743 427.432 655.574 427.579 655.437 427.765C655.301 427.951 655.197 428.166 655.127 428.409C655.061 428.653 655.028 428.914 655.028 429.19Z" fill="white"/>
<path opacity="0.4" d="M651.045 430.975C651.045 430.827 651.008 430.692 650.934 430.573C650.859 430.449 650.717 430.337 650.506 430.238C650.299 430.139 649.994 430.048 649.589 429.965C649.113 429.862 648.694 429.727 648.33 429.562C647.971 429.397 647.69 429.186 647.487 428.93C647.289 428.674 647.19 428.358 647.19 427.982C647.19 427.614 647.293 427.279 647.5 426.977C647.711 426.672 648.01 426.426 648.399 426.24C648.787 426.054 649.246 425.961 649.775 425.961C650.337 425.961 650.818 426.056 651.219 426.246C651.624 426.432 651.934 426.686 652.149 427.008C652.363 427.327 652.471 427.686 652.471 428.087H650.977C650.977 427.818 650.876 427.581 650.673 427.374C650.475 427.168 650.175 427.064 649.775 427.064C649.518 427.064 649.306 427.106 649.136 427.188C648.971 427.267 648.847 427.37 648.764 427.498C648.686 427.626 648.647 427.767 648.647 427.92C648.647 428.068 648.686 428.199 648.764 428.31C648.847 428.418 648.987 428.515 649.186 428.601C649.388 428.684 649.671 428.765 650.035 428.843C650.547 428.951 650.987 429.089 651.355 429.258C651.727 429.424 652.012 429.639 652.211 429.903C652.409 430.163 652.508 430.494 652.508 430.895C652.508 431.287 652.397 431.637 652.173 431.942C651.95 432.248 651.634 432.488 651.225 432.661C650.82 432.831 650.343 432.915 649.793 432.915C649.186 432.915 648.671 432.808 648.25 432.593C647.828 432.374 647.508 432.095 647.289 431.756C647.074 431.413 646.967 431.058 646.967 430.69H648.411C648.428 430.967 648.504 431.188 648.64 431.353C648.781 431.515 648.954 431.632 649.161 431.707C649.372 431.777 649.589 431.812 649.812 431.812C650.08 431.812 650.306 431.777 650.487 431.707C650.669 431.632 650.808 431.533 650.903 431.409C650.998 431.281 651.045 431.137 651.045 430.975Z" fill="white"/>
<path opacity="0.4" d="M641.702 423.271V432.792H640.215V423.271H641.702ZM641.442 429.19L640.959 429.184C640.963 428.564 641.074 428.013 641.293 427.529C641.512 427.042 641.818 426.659 642.211 426.383C642.603 426.102 643.062 425.961 643.587 425.961C644.029 425.961 644.413 426.044 644.74 426.209C645.066 426.374 645.318 426.643 645.496 427.015C645.678 427.383 645.769 427.872 645.769 428.484V432.792H644.269V428.471C644.269 428.149 644.221 427.893 644.126 427.703C644.035 427.513 643.901 427.376 643.723 427.294C643.545 427.207 643.328 427.164 643.072 427.164C642.804 427.164 642.566 427.217 642.359 427.325C642.157 427.432 641.988 427.579 641.851 427.765C641.715 427.951 641.612 428.166 641.541 428.409C641.475 428.653 641.442 428.914 641.442 429.19Z" fill="white"/>
<path opacity="0.4" d="M635.111 423.271V432.792H633.611V423.271H635.111ZM639.277 426.085L636.357 429.321L634.758 430.957L634.368 429.692L635.576 428.199L637.473 426.085H639.277ZM637.795 432.792L635.62 429.643L636.562 428.595L639.525 432.792H637.795Z" fill="white"/>
<path opacity="0.4" d="M630.546 431.446V428.248C630.546 427.893 630.449 427.61 630.255 427.399C630.06 427.188 629.763 427.083 629.362 427.083C629.118 427.083 628.907 427.124 628.73 427.207C628.552 427.289 628.414 427.401 628.314 427.542C628.215 427.682 628.166 427.841 628.166 428.019H626.678C626.678 427.663 626.792 427.329 627.019 427.015C627.246 426.701 627.566 426.446 627.98 426.252C628.393 426.058 628.881 425.961 629.443 425.961C629.947 425.961 630.393 426.046 630.781 426.215C631.174 426.384 631.482 426.641 631.705 426.984C631.932 427.323 632.046 427.748 632.046 428.261V431.242C632.046 431.548 632.066 431.823 632.108 432.066C632.153 432.306 632.217 432.515 632.3 432.692V432.792H630.769C630.699 432.63 630.643 432.426 630.602 432.178C630.564 431.926 630.546 431.682 630.546 431.446ZM630.763 428.713L630.775 429.637H629.703C629.145 429.637 628.726 429.738 628.445 429.94C628.164 430.139 628.023 430.418 628.023 430.777C628.023 431.05 628.114 431.277 628.296 431.459C628.482 431.641 628.746 431.732 629.089 431.732C629.395 431.732 629.662 431.67 629.889 431.546C630.12 431.418 630.302 431.263 630.434 431.081C630.566 430.895 630.637 430.719 630.645 430.554L631.128 431.217C631.079 431.387 630.994 431.568 630.874 431.763C630.755 431.957 630.597 432.143 630.403 432.32C630.213 432.494 629.984 432.637 629.715 432.748C629.451 432.86 629.145 432.915 628.798 432.915C628.36 432.915 627.969 432.829 627.626 432.655C627.283 432.477 627.015 432.24 626.821 431.942C626.626 431.641 626.529 431.3 626.529 430.92C626.529 430.209 626.794 429.663 627.323 429.283C627.856 428.903 628.612 428.713 629.591 428.713H630.763Z" fill="white"/>
<path opacity="0.4" d="M619.629 423.271H621.123V431.36L620.98 432.792H619.629V423.271ZM625.499 429.376V429.507C625.499 430.168 625.4 430.754 625.201 431.267C625.007 431.779 624.716 432.182 624.327 432.476C623.939 432.769 623.462 432.916 622.895 432.916C622.338 432.916 621.877 432.779 621.513 432.507C621.15 432.23 620.867 431.845 620.664 431.354C620.462 430.862 620.323 430.294 620.249 429.649V429.234C620.323 428.585 620.462 428.015 620.664 427.523C620.867 427.031 621.148 426.649 621.507 426.376C621.871 426.1 622.329 425.961 622.883 425.961C623.457 425.961 623.939 426.106 624.327 426.395C624.716 426.68 625.007 427.081 625.201 427.597C625.4 428.11 625.499 428.703 625.499 429.376ZM624.005 429.507V429.376C624.005 428.976 623.959 428.608 623.869 428.273C623.778 427.938 623.623 427.67 623.404 427.467C623.189 427.265 622.891 427.164 622.511 427.164C622.247 427.164 622.019 427.209 621.829 427.3C621.639 427.391 621.48 427.515 621.352 427.672C621.224 427.829 621.123 428.011 621.048 428.217C620.978 428.424 620.931 428.647 620.906 428.887V430.009C620.943 430.319 621.021 430.604 621.141 430.864C621.265 431.12 621.439 431.327 621.662 431.484C621.885 431.637 622.172 431.713 622.524 431.713C622.895 431.713 623.189 431.616 623.404 431.422C623.619 431.223 623.771 430.959 623.862 430.628C623.957 430.294 624.005 429.92 624.005 429.507Z" fill="white"/>
<path opacity="0.4" d="M614.05 423.271V432.792H612.562V423.271H614.05ZM613.79 429.19L613.306 429.184C613.31 428.564 613.422 428.013 613.641 427.529C613.86 427.042 614.166 426.659 614.558 426.383C614.951 426.102 615.41 425.961 615.934 425.961C616.377 425.961 616.761 426.044 617.087 426.209C617.414 426.374 617.666 426.643 617.843 427.015C618.025 427.383 618.116 427.872 618.116 428.484V432.792H616.616V428.471C616.616 428.149 616.569 427.893 616.474 427.703C616.383 427.513 616.248 427.376 616.071 427.294C615.893 427.207 615.676 427.164 615.42 427.164C615.151 427.164 614.914 427.217 614.707 427.325C614.505 427.432 614.335 427.579 614.199 427.765C614.062 427.951 613.959 428.166 613.889 428.409C613.823 428.653 613.79 428.914 613.79 429.19Z" fill="white"/>
<path opacity="0.4" d="M609.505 431.446V428.248C609.505 427.893 609.408 427.61 609.213 427.399C609.019 427.188 608.722 427.083 608.321 427.083C608.077 427.083 607.866 427.124 607.689 427.207C607.511 427.289 607.373 427.401 607.273 427.542C607.174 427.682 607.125 427.841 607.125 428.019H605.637C605.637 427.663 605.751 427.329 605.978 427.015C606.205 426.701 606.525 426.446 606.939 426.252C607.352 426.058 607.84 425.961 608.402 425.961C608.906 425.961 609.352 426.046 609.74 426.215C610.133 426.384 610.441 426.641 610.664 426.984C610.891 427.323 611.005 427.748 611.005 428.261V431.242C611.005 431.548 611.025 431.823 611.067 432.066C611.112 432.306 611.176 432.515 611.259 432.692V432.792H609.728C609.658 432.63 609.602 432.426 609.561 432.178C609.523 431.926 609.505 431.682 609.505 431.446ZM609.722 428.713L609.734 429.637H608.662C608.104 429.637 607.685 429.738 607.404 429.94C607.123 430.139 606.982 430.418 606.982 430.777C606.982 431.05 607.073 431.277 607.255 431.459C607.441 431.641 607.705 431.732 608.048 431.732C608.354 431.732 608.621 431.67 608.848 431.546C609.079 431.418 609.261 431.263 609.393 431.081C609.525 430.895 609.596 430.719 609.604 430.554L610.087 431.217C610.038 431.387 609.953 431.568 609.833 431.763C609.713 431.957 609.556 432.143 609.362 432.32C609.172 432.494 608.943 432.637 608.674 432.748C608.41 432.86 608.104 432.915 607.757 432.915C607.319 432.915 606.928 432.829 606.585 432.655C606.242 432.477 605.974 432.24 605.78 431.942C605.585 431.641 605.488 431.3 605.488 430.92C605.488 430.209 605.753 429.663 606.282 429.283C606.815 428.903 607.571 428.713 608.55 428.713H609.722Z" fill="white"/>
<path opacity="0.4" d="M602.99 427.362V432.792H601.496V426.085H602.922L602.99 427.362ZM605.042 426.042L605.029 427.43C604.938 427.413 604.839 427.401 604.732 427.393C604.628 427.384 604.525 427.38 604.422 427.38C604.075 427.38 603.787 427.444 603.56 427.573C603.337 427.701 603.166 427.88 603.046 428.112C602.926 428.339 602.856 428.61 602.835 428.924L602.494 428.949C602.494 428.391 602.568 427.887 602.717 427.436C602.866 426.982 603.089 426.622 603.387 426.358C603.684 426.093 604.058 425.961 604.508 425.961C604.599 425.961 604.697 425.969 604.8 425.986C604.907 426.002 604.988 426.021 605.042 426.042Z" fill="white"/>
<path opacity="0.4" d="M598.431 431.446V428.248C598.431 427.893 598.333 427.61 598.139 427.399C597.945 427.188 597.648 427.083 597.247 427.083C597.003 427.083 596.792 427.124 596.614 427.207C596.437 427.289 596.298 427.401 596.199 427.542C596.1 427.682 596.05 427.841 596.05 428.019H594.563C594.563 427.663 594.676 427.329 594.904 427.015C595.131 426.701 595.451 426.446 595.864 426.252C596.278 426.058 596.765 425.961 597.327 425.961C597.831 425.961 598.278 426.046 598.666 426.215C599.059 426.384 599.367 426.641 599.59 426.984C599.817 427.323 599.931 427.748 599.931 428.261V431.242C599.931 431.548 599.951 431.823 599.993 432.066C600.038 432.306 600.102 432.515 600.185 432.692V432.792H598.654C598.583 432.63 598.528 432.426 598.486 432.178C598.449 431.926 598.431 431.682 598.431 431.446ZM598.648 428.713L598.66 429.637H597.588C597.03 429.637 596.61 429.738 596.329 429.94C596.048 430.139 595.908 430.418 595.908 430.777C595.908 431.05 595.999 431.277 596.181 431.459C596.367 431.641 596.631 431.732 596.974 431.732C597.28 431.732 597.546 431.67 597.774 431.546C598.005 431.418 598.187 431.263 598.319 431.081C598.451 430.895 598.522 430.719 598.53 430.554L599.013 431.217C598.964 431.387 598.879 431.568 598.759 431.763C598.639 431.957 598.482 432.143 598.288 432.32C598.098 432.494 597.869 432.637 597.6 432.748C597.336 432.86 597.03 432.915 596.683 432.915C596.245 432.915 595.854 432.829 595.511 432.655C595.168 432.477 594.9 432.24 594.705 431.942C594.511 431.641 594.414 431.3 594.414 430.92C594.414 430.209 594.679 429.663 595.207 429.283C595.741 428.903 596.497 428.713 597.476 428.713H598.648Z" fill="white"/>
<path opacity="0.4" d="M592.175 432.791H590.681V425.44C590.681 424.696 590.89 424.128 591.307 423.736C591.725 423.339 592.295 423.141 593.018 423.141C593.167 423.141 593.314 423.151 593.458 423.172C593.603 423.188 593.743 423.215 593.88 423.252L593.842 424.405C593.76 424.384 593.669 424.37 593.57 424.362C593.475 424.353 593.371 424.349 593.26 424.349C592.917 424.349 592.65 424.444 592.46 424.634C592.27 424.82 592.175 425.089 592.175 425.44V432.791ZM593.557 426.085V427.176H589.652V426.085H593.557Z" fill="white"/>
<path opacity="0.4" d="M580.256 427.882L581.812 426.835C582.072 426.661 582.258 426.492 582.369 426.326C582.481 426.157 582.537 425.946 582.537 425.694C582.537 425.479 582.454 425.281 582.289 425.099C582.124 424.917 581.89 424.826 581.588 424.826C581.27 424.826 581.029 424.932 580.863 425.143C580.702 425.353 580.622 425.601 580.622 425.886C580.622 426.167 580.725 426.459 580.931 426.76C581.138 427.062 581.398 427.395 581.712 427.758L585.977 432.791H584.248L580.764 428.694C580.314 428.153 579.946 427.672 579.661 427.25C579.376 426.824 579.233 426.38 579.233 425.917C579.233 425.446 579.33 425.041 579.524 424.702C579.719 424.364 579.993 424.103 580.349 423.922C580.704 423.736 581.119 423.643 581.595 423.643C582.053 423.643 582.448 423.736 582.779 423.922C583.113 424.103 583.369 424.345 583.547 424.647C583.729 424.948 583.82 425.279 583.82 425.638C583.82 425.924 583.768 426.184 583.665 426.419C583.562 426.655 583.419 426.87 583.237 427.064C583.055 427.258 582.845 427.442 582.605 427.616L580.715 428.992C580.495 429.169 580.332 429.341 580.225 429.506C580.122 429.667 580.053 429.816 580.02 429.952C579.987 430.089 579.971 430.209 579.971 430.312C579.971 430.576 580.026 430.816 580.138 431.031C580.254 431.246 580.421 431.417 580.64 431.545C580.863 431.669 581.134 431.731 581.452 431.731C581.795 431.731 582.128 431.655 582.45 431.502C582.772 431.345 583.062 431.124 583.318 430.839C583.574 430.554 583.776 430.213 583.925 429.816C584.078 429.419 584.155 428.979 584.155 428.496H585.444C585.444 429.153 585.347 429.758 585.153 430.312C584.958 430.862 584.638 431.335 584.192 431.731C584.163 431.76 584.13 431.798 584.093 431.843C584.06 431.884 584.026 431.919 583.993 431.948C583.638 432.275 583.239 432.519 582.797 432.68C582.359 432.837 581.892 432.915 581.396 432.915C580.797 432.915 580.279 432.806 579.841 432.587C579.403 432.368 579.064 432.066 578.824 431.682C578.588 431.298 578.471 430.857 578.471 430.362C578.471 429.994 578.547 429.672 578.7 429.395C578.853 429.114 579.062 428.853 579.326 428.614C579.595 428.37 579.905 428.126 580.256 427.882Z" fill="white"/>
<path opacity="0.4" d="M572.356 431.403V423.271H573.856V432.792H572.498L572.356 431.403ZM567.992 429.513V429.383C567.992 428.701 568.098 428.104 568.308 427.591C568.519 427.075 568.821 426.674 569.213 426.389C569.61 426.104 570.081 425.961 570.626 425.961C571.168 425.961 571.62 426.1 571.984 426.376C572.348 426.649 572.633 427.033 572.839 427.529C573.05 428.021 573.191 428.595 573.261 429.252V429.668C573.191 430.304 573.05 430.868 572.839 431.36C572.633 431.847 572.345 432.23 571.978 432.507C571.614 432.779 571.16 432.916 570.614 432.916C570.073 432.916 569.606 432.769 569.213 432.476C568.821 432.178 568.519 431.773 568.308 431.261C568.098 430.748 567.992 430.166 567.992 429.513ZM569.486 429.383V429.513C569.486 429.918 569.536 430.288 569.635 430.622C569.738 430.953 569.899 431.217 570.118 431.416C570.341 431.61 570.633 431.707 570.992 431.707C571.331 431.707 571.61 431.633 571.829 431.484C572.048 431.335 572.219 431.135 572.343 430.883C572.472 430.626 572.558 430.341 572.604 430.027V428.905C572.579 428.661 572.527 428.434 572.449 428.223C572.374 428.013 572.273 427.829 572.145 427.672C572.017 427.511 571.858 427.387 571.668 427.3C571.482 427.209 571.261 427.164 571.005 427.164C570.645 427.164 570.354 427.265 570.131 427.467C569.907 427.666 569.744 427.932 569.641 428.267C569.538 428.602 569.486 428.973 569.486 429.383Z" fill="white"/>
<path opacity="0.4" d="M565.206 431.446V428.248C565.206 427.893 565.109 427.61 564.915 427.399C564.72 427.188 564.423 427.083 564.022 427.083C563.778 427.083 563.568 427.124 563.39 427.207C563.212 427.289 563.074 427.401 562.975 427.542C562.875 427.682 562.826 427.841 562.826 428.019H561.338C561.338 427.663 561.452 427.329 561.679 427.015C561.906 426.701 562.227 426.446 562.64 426.252C563.053 426.058 563.541 425.961 564.103 425.961C564.607 425.961 565.053 426.046 565.442 426.215C565.834 426.384 566.142 426.641 566.365 426.984C566.592 427.323 566.706 427.748 566.706 428.261V431.242C566.706 431.548 566.727 431.823 566.768 432.066C566.813 432.306 566.877 432.515 566.96 432.692V432.792H565.429C565.359 432.63 565.303 432.426 565.262 432.178C565.225 431.926 565.206 431.682 565.206 431.446ZM565.423 428.713L565.435 429.637H564.363C563.805 429.637 563.386 429.738 563.105 429.94C562.824 430.139 562.683 430.418 562.683 430.777C562.683 431.05 562.774 431.277 562.956 431.459C563.142 431.641 563.406 431.732 563.749 431.732C564.055 431.732 564.322 431.67 564.549 431.546C564.78 431.418 564.962 431.263 565.094 431.081C565.227 430.895 565.297 430.719 565.305 430.554L565.789 431.217C565.739 431.387 565.654 431.568 565.534 431.763C565.415 431.957 565.258 432.143 565.063 432.32C564.873 432.494 564.644 432.637 564.375 432.748C564.111 432.86 563.805 432.915 563.458 432.915C563.02 432.915 562.63 432.829 562.287 432.655C561.944 432.477 561.675 432.24 561.481 431.942C561.287 431.641 561.189 431.3 561.189 430.92C561.189 430.209 561.454 429.663 561.983 429.283C562.516 428.903 563.272 428.713 564.251 428.713H565.423Z" fill="white"/>
<path opacity="0.4" d="M555.843 423.271V432.792H554.355V423.271H555.843ZM555.583 429.19L555.099 429.184C555.103 428.564 555.215 428.013 555.434 427.529C555.653 427.042 555.959 426.659 556.351 426.383C556.744 426.102 557.203 425.961 557.727 425.961C558.17 425.961 558.554 426.044 558.88 426.209C559.207 426.374 559.459 426.643 559.636 427.015C559.818 427.383 559.909 427.872 559.909 428.484V432.792H558.409V428.471C558.409 428.149 558.362 427.893 558.267 427.703C558.176 427.513 558.041 427.376 557.864 427.294C557.686 427.207 557.469 427.164 557.213 427.164C556.944 427.164 556.707 427.217 556.5 427.325C556.298 427.432 556.128 427.579 555.992 427.765C555.855 427.951 555.752 428.166 555.682 428.409C555.616 428.653 555.583 428.914 555.583 429.19Z" fill="white"/>
<path opacity="0.4" d="M553.173 431.601V432.792H548.177V431.601H553.173ZM553.037 427.015L548.686 432.792H547.719V431.831L552.045 426.085H553.037V427.015ZM552.46 426.085V427.275H547.793V426.085H552.46Z" fill="white"/>
<path opacity="0.4" d="M544.131 432.915C543.466 432.915 542.894 432.773 542.414 432.488C541.935 432.203 541.563 431.816 541.299 431.329C541.038 430.837 540.908 430.283 540.908 429.668V429.42C540.908 428.717 541.04 428.108 541.305 427.591C541.569 427.07 541.931 426.67 542.39 426.389C542.852 426.103 543.373 425.961 543.952 425.961C544.592 425.961 545.123 426.101 545.545 426.382C545.97 426.663 546.288 427.05 546.499 427.542C546.71 428.033 546.815 428.601 546.815 429.246V429.884H541.633V428.812H545.34V428.694C545.332 428.426 545.278 428.174 545.179 427.938C545.084 427.703 544.937 427.513 544.739 427.368C544.54 427.223 544.276 427.151 543.945 427.151C543.615 427.151 543.334 427.244 543.102 427.43C542.875 427.612 542.702 427.874 542.582 428.217C542.466 428.556 542.408 428.957 542.408 429.42V429.668C542.408 430.056 542.478 430.407 542.619 430.721C542.764 431.031 542.972 431.277 543.245 431.459C543.518 431.641 543.842 431.732 544.218 431.732C544.578 431.732 544.898 431.659 545.179 431.515C545.46 431.37 545.704 431.165 545.91 430.901L546.697 431.663C546.483 431.982 546.164 432.271 545.743 432.531C545.326 432.787 544.788 432.915 544.131 432.915Z" fill="white"/>
<path opacity="0.4" d="M535.593 427.517V432.792H534.1V426.085H535.507L535.593 427.517ZM535.327 429.19L534.843 429.184C534.852 428.544 534.967 427.982 535.191 427.498C535.414 427.015 535.724 426.639 536.12 426.37C536.521 426.097 536.988 425.961 537.521 425.961C537.955 425.961 538.331 426.044 538.649 426.209C538.967 426.37 539.213 426.634 539.387 427.002C539.564 427.366 539.653 427.851 539.653 428.459V432.792H538.153V428.453C538.153 428.13 538.106 427.876 538.011 427.69C537.92 427.5 537.786 427.366 537.608 427.287C537.434 427.205 537.217 427.163 536.957 427.163C536.701 427.163 536.472 427.217 536.269 427.325C536.067 427.432 535.895 427.579 535.755 427.765C535.618 427.951 535.513 428.165 535.438 428.409C535.364 428.653 535.327 428.913 535.327 429.19Z" fill="white"/>
<path opacity="0.4" d="M526.975 423.271H528.468V431.36L528.326 432.792H526.975V423.271ZM532.844 429.376V429.507C532.844 430.168 532.745 430.754 532.547 431.267C532.353 431.779 532.061 432.182 531.673 432.476C531.285 432.769 530.807 432.916 530.241 432.916C529.683 432.916 529.223 432.779 528.859 432.507C528.495 432.23 528.212 431.845 528.01 431.354C527.807 430.862 527.669 430.294 527.594 429.649V429.234C527.669 428.585 527.807 428.015 528.01 427.523C528.212 427.031 528.493 426.649 528.853 426.376C529.216 426.1 529.675 425.961 530.229 425.961C530.803 425.961 531.285 426.106 531.673 426.395C532.061 426.68 532.353 427.081 532.547 427.597C532.745 428.11 532.844 428.703 532.844 429.376ZM531.351 429.507V429.376C531.351 428.976 531.305 428.608 531.214 428.273C531.123 427.938 530.968 427.67 530.749 427.467C530.535 427.265 530.237 427.164 529.857 427.164C529.592 427.164 529.365 427.209 529.175 427.3C528.985 427.391 528.826 427.515 528.698 427.672C528.57 427.829 528.468 428.011 528.394 428.217C528.324 428.424 528.276 428.647 528.251 428.887V430.009C528.289 430.319 528.367 430.604 528.487 430.864C528.611 431.12 528.785 431.327 529.008 431.484C529.231 431.637 529.518 431.713 529.869 431.713C530.241 431.713 530.535 431.616 530.749 431.422C530.964 431.223 531.117 430.959 531.208 430.628C531.303 430.294 531.351 429.92 531.351 429.507Z" fill="white"/>
<path opacity="0.4" d="M523.124 432.915C522.458 432.915 521.886 432.773 521.407 432.488C520.927 432.203 520.555 431.816 520.291 431.329C520.031 430.837 519.9 430.283 519.9 429.668V429.42C519.9 428.717 520.033 428.108 520.297 427.591C520.562 427.07 520.923 426.67 521.382 426.389C521.845 426.103 522.365 425.961 522.944 425.961C523.584 425.961 524.115 426.101 524.537 426.382C524.962 426.663 525.281 427.05 525.491 427.542C525.702 428.033 525.807 428.601 525.807 429.246V429.884H520.626V428.812H524.332V428.694C524.324 428.426 524.27 428.174 524.171 427.938C524.076 427.703 523.929 427.513 523.731 427.368C523.533 427.223 523.268 427.151 522.938 427.151C522.607 427.151 522.326 427.244 522.095 427.43C521.867 427.612 521.694 427.874 521.574 428.217C521.458 428.556 521.4 428.957 521.4 429.42V429.668C521.4 430.056 521.471 430.407 521.611 430.721C521.756 431.031 521.964 431.277 522.237 431.459C522.51 431.641 522.834 431.732 523.21 431.732C523.57 431.732 523.89 431.659 524.171 431.515C524.452 431.37 524.696 431.165 524.902 430.901L525.69 431.663C525.475 431.982 525.157 432.271 524.735 432.531C524.318 432.787 523.781 432.915 523.124 432.915Z" fill="white"/>
<path opacity="0.4" d="M515.978 432.06L517.801 426.085H519.4L516.71 433.814C516.648 433.98 516.567 434.159 516.468 434.354C516.369 434.548 516.239 434.732 516.078 434.905C515.921 435.083 515.724 435.225 515.489 435.333C515.253 435.444 514.968 435.5 514.633 435.5C514.501 435.5 514.373 435.488 514.249 435.463C514.129 435.442 514.016 435.42 513.908 435.395L513.902 434.254C513.943 434.259 513.993 434.263 514.051 434.267C514.113 434.271 514.162 434.273 514.199 434.273C514.571 434.273 514.852 434.203 515.042 434.062C515.233 433.926 515.383 433.692 515.495 433.362L515.978 432.06ZM514.949 426.085L516.542 431.106L516.809 432.68L515.774 432.947L513.338 426.085H514.949Z" fill="white"/>
<path opacity="0.4" d="M509.748 432.06L511.57 426.085H513.169L510.479 433.814C510.417 433.98 510.337 434.159 510.238 434.354C510.138 434.548 510.008 434.732 509.847 434.905C509.69 435.083 509.494 435.225 509.258 435.333C509.023 435.444 508.738 435.5 508.403 435.5C508.271 435.5 508.143 435.488 508.019 435.463C507.899 435.442 507.785 435.42 507.678 435.395L507.671 434.254C507.713 434.259 507.762 434.263 507.82 434.267C507.882 434.271 507.932 434.273 507.969 434.273C508.341 434.273 508.622 434.203 508.812 434.062C509.002 433.926 509.153 433.692 509.264 433.362L509.748 432.06ZM508.719 426.085L510.312 431.106L510.578 432.68L509.543 432.947L507.107 426.085H508.719Z" fill="white"/>
<path opacity="0.4" d="M504.843 431.446V428.248C504.843 427.893 504.746 427.61 504.551 427.399C504.357 427.188 504.06 427.083 503.659 427.083C503.415 427.083 503.204 427.124 503.027 427.207C502.849 427.289 502.71 427.401 502.611 427.542C502.512 427.682 502.463 427.841 502.463 428.019H500.975C500.975 427.663 501.089 427.329 501.316 427.015C501.543 426.701 501.863 426.446 502.277 426.252C502.69 426.058 503.177 425.961 503.739 425.961C504.244 425.961 504.69 426.046 505.078 426.215C505.471 426.384 505.779 426.641 506.002 426.984C506.229 427.323 506.343 427.748 506.343 428.261V431.242C506.343 431.548 506.363 431.823 506.405 432.066C506.45 432.306 506.514 432.515 506.597 432.692V432.792H505.066C504.996 432.63 504.94 432.426 504.898 432.178C504.861 431.926 504.843 431.682 504.843 431.446ZM505.06 428.713L505.072 429.637H504C503.442 429.637 503.022 429.738 502.741 429.94C502.46 430.139 502.32 430.418 502.32 430.777C502.32 431.05 502.411 431.277 502.593 431.459C502.779 431.641 503.043 431.732 503.386 431.732C503.692 431.732 503.958 431.67 504.186 431.546C504.417 431.418 504.599 431.263 504.731 431.081C504.863 430.895 504.934 430.719 504.942 430.554L505.425 431.217C505.376 431.387 505.291 431.568 505.171 431.763C505.051 431.957 504.894 432.143 504.7 432.32C504.51 432.494 504.281 432.637 504.012 432.748C503.748 432.86 503.442 432.915 503.095 432.915C502.657 432.915 502.266 432.829 501.923 432.655C501.58 432.477 501.312 432.24 501.117 431.942C500.923 431.641 500.826 431.3 500.826 430.92C500.826 430.209 501.091 429.663 501.62 429.283C502.153 428.903 502.909 428.713 503.888 428.713H505.06Z" fill="white"/>
<path opacity="0.4" d="M498.293 430.975C498.293 430.827 498.256 430.692 498.182 430.573C498.107 430.449 497.965 430.337 497.754 430.238C497.547 430.139 497.242 430.048 496.837 429.965C496.362 429.862 495.942 429.727 495.578 429.562C495.219 429.397 494.938 429.186 494.736 428.93C494.537 428.674 494.438 428.358 494.438 427.982C494.438 427.614 494.541 427.279 494.748 426.977C494.959 426.672 495.258 426.426 495.647 426.24C496.035 426.054 496.494 425.961 497.023 425.961C497.585 425.961 498.066 426.056 498.467 426.246C498.872 426.432 499.182 426.686 499.397 427.008C499.612 427.327 499.719 427.686 499.719 428.087H498.225C498.225 427.818 498.124 427.581 497.921 427.374C497.723 427.168 497.424 427.064 497.023 427.064C496.766 427.064 496.554 427.106 496.384 427.188C496.219 427.267 496.095 427.37 496.012 427.498C495.934 427.626 495.895 427.767 495.895 427.92C495.895 428.068 495.934 428.199 496.012 428.31C496.095 428.418 496.236 428.515 496.434 428.601C496.636 428.684 496.919 428.765 497.283 428.843C497.795 428.951 498.236 429.089 498.603 429.258C498.975 429.424 499.26 429.639 499.459 429.903C499.657 430.163 499.756 430.494 499.756 430.895C499.756 431.287 499.645 431.637 499.421 431.942C499.198 432.248 498.882 432.488 498.473 432.661C498.068 432.831 497.591 432.915 497.041 432.915C496.434 432.915 495.919 432.808 495.498 432.593C495.076 432.374 494.756 432.095 494.537 431.756C494.322 431.413 494.215 431.058 494.215 430.69H495.659C495.676 430.967 495.752 431.188 495.888 431.353C496.029 431.515 496.202 431.632 496.409 431.707C496.62 431.777 496.837 431.812 497.06 431.812C497.328 431.812 497.554 431.777 497.736 431.707C497.917 431.632 498.056 431.533 498.151 431.409C498.246 431.281 498.293 431.137 498.293 430.975Z" fill="white"/>
<path opacity="0.4" d="M487.041 429.513V429.37C487.041 428.721 487.165 428.141 487.413 427.628C487.661 427.116 488.016 426.711 488.479 426.413C488.942 426.112 489.5 425.961 490.153 425.961C490.81 425.961 491.37 426.112 491.832 426.413C492.299 426.711 492.657 427.116 492.905 427.628C493.153 428.141 493.277 428.721 493.277 429.37V429.513C493.277 430.157 493.153 430.738 492.905 431.254C492.657 431.767 492.301 432.172 491.839 432.469C491.376 432.767 490.818 432.915 490.165 432.915C489.508 432.915 488.946 432.767 488.479 432.469C488.016 432.172 487.661 431.767 487.413 431.254C487.165 430.738 487.041 430.157 487.041 429.513ZM488.535 429.37V429.513C488.535 429.913 488.591 430.283 488.702 430.622C488.818 430.957 488.996 431.225 489.235 431.428C489.475 431.626 489.785 431.725 490.165 431.725C490.537 431.725 490.843 431.626 491.082 431.428C491.322 431.225 491.498 430.957 491.609 430.622C491.725 430.283 491.783 429.913 491.783 429.513V429.37C491.783 428.973 491.725 428.608 491.609 428.273C491.493 427.934 491.316 427.663 491.076 427.461C490.841 427.254 490.533 427.151 490.153 427.151C489.777 427.151 489.469 427.254 489.229 427.461C488.993 427.663 488.818 427.934 488.702 428.273C488.591 428.608 488.535 428.973 488.535 429.37Z" fill="white"/>
<path opacity="0.4" d="M477.757 427.449V432.792H476.264V426.085H477.671L477.757 427.449ZM477.516 429.19L477.007 429.184C477.007 428.564 477.109 428.013 477.311 427.529C477.514 427.042 477.811 426.659 478.204 426.382C478.6 426.101 479.092 425.961 479.679 425.961C480.291 425.961 480.791 426.145 481.179 426.513C481.572 426.88 481.768 427.484 481.768 428.323V432.792H480.274V428.453C480.274 428.126 480.224 427.87 480.125 427.684C480.03 427.498 479.892 427.366 479.71 427.287C479.532 427.205 479.319 427.163 479.072 427.163C478.791 427.163 478.551 427.217 478.353 427.325C478.158 427.432 477.999 427.579 477.875 427.765C477.751 427.951 477.66 428.165 477.603 428.409C477.545 428.653 477.516 428.913 477.516 429.19ZM481.675 428.794L480.974 428.949C480.979 428.407 481.08 427.911 481.278 427.461C481.476 427.006 481.77 426.643 482.158 426.37C482.547 426.097 483.024 425.961 483.59 425.961C484.045 425.961 484.435 426.046 484.762 426.215C485.092 426.38 485.344 426.647 485.518 427.015C485.695 427.378 485.784 427.858 485.784 428.453V432.792H484.284V428.446C484.284 428.108 484.235 427.845 484.136 427.659C484.041 427.473 483.904 427.345 483.726 427.275C483.549 427.201 483.336 427.163 483.088 427.163C482.857 427.163 482.652 427.207 482.474 427.294C482.301 427.376 482.154 427.494 482.034 427.647C481.914 427.796 481.824 427.967 481.762 428.161C481.704 428.356 481.675 428.566 481.675 428.794Z" fill="white"/>
<path opacity="0.69" d="M689.741 164.878V232.727H678.044L647.614 184.124V232.727H635.918V164.878H647.614L678.137 213.575V164.878H689.741Z" fill="white"/>
<path opacity="0.69" d="M611.549 164.878H623.199V210.22C623.199 215.377 622.08 219.695 619.844 223.175C617.607 226.654 614.562 229.279 610.71 231.05C606.889 232.79 602.617 233.659 597.895 233.659C593.018 233.659 588.668 232.79 584.847 231.05C581.026 229.279 578.013 226.654 575.807 223.175C573.632 219.695 572.545 215.377 572.545 210.22V164.878H584.195V210.22C584.195 213.482 584.754 216.169 585.872 218.282C586.991 220.363 588.575 221.901 590.626 222.895C592.676 223.889 595.099 224.386 597.895 224.386C600.691 224.386 603.099 223.889 605.118 222.895C607.168 221.901 608.753 220.363 609.871 218.282C610.99 216.169 611.549 213.482 611.549 210.22V164.878Z" fill="white"/>
<path opacity="0.69" d="M538.617 202.065H521.329L521.236 193.537H536.334C540.186 193.537 543.137 192.698 545.188 191.021C547.269 189.343 548.31 186.951 548.31 183.844C548.31 180.458 547.316 178.004 545.328 176.482C543.37 174.959 540.326 174.198 536.194 174.198H524.87V232.727H513.174V164.878H536.194C543.65 164.878 549.475 166.354 553.669 169.305C557.894 172.257 560.006 176.886 560.006 183.192C560.006 185.988 559.339 188.551 558.003 190.881C556.667 193.18 554.694 195.059 552.084 196.52C549.475 197.98 546.228 198.85 542.345 199.129L538.617 202.065ZM538.105 232.727H517.647L522.913 223.454H538.105C542.019 223.454 544.986 222.491 547.005 220.565C549.024 218.639 550.034 216.091 550.034 212.923C550.034 210.717 549.646 208.806 548.869 207.191C548.092 205.544 546.865 204.286 545.188 203.416C543.51 202.515 541.32 202.065 538.617 202.065H525.476L525.569 193.537H542.671L545.328 196.753C549.056 196.877 552.116 197.7 554.508 199.222C556.931 200.745 558.733 202.717 559.913 205.14C561.094 207.564 561.684 210.173 561.684 212.969C561.684 219.431 559.603 224.34 555.44 227.695C551.277 231.05 545.498 232.727 538.105 232.727Z" fill="white"/>
<path opacity="0.69" d="M470.538 232.727H456.045L456.139 223.454H470.538C474.732 223.454 478.242 222.538 481.069 220.705C483.927 218.872 486.071 216.247 487.5 212.829C488.96 209.412 489.69 205.342 489.69 200.62V196.939C489.69 192.062 488.96 187.93 487.5 184.543C486.04 181.157 483.912 178.594 481.116 176.855C478.351 175.084 474.965 174.198 470.957 174.198H455.766V164.878H470.957C476.984 164.878 482.281 166.214 486.848 168.886C491.414 171.527 494.987 175.255 497.566 180.07C500.144 184.885 501.433 190.539 501.433 197.032V200.62C501.433 207.113 500.144 212.767 497.566 217.583C495.018 222.367 491.414 226.095 486.754 228.766C482.126 231.407 476.72 232.727 470.538 232.727ZM462.523 164.878V232.727H450.826V164.878H462.523Z" fill="white"/>
<path opacity="0.69" d="M413.964 173.919L393.693 232.727H381.438L406.974 164.878H414.803L413.964 173.919ZM430.926 232.727L410.609 173.919L409.723 164.878H417.599L443.229 232.727H430.926ZM429.948 207.564V216.837H393.041V207.564H429.948Z" fill="white"/>
<path opacity="0.69" d="M361.027 164.878V232.727H349.424V164.878H361.027ZM382.323 164.878V174.198H328.314V164.878H382.323Z" fill="white"/>
<path opacity="0.69" d="M311.023 215.252C311.023 213.388 310.619 211.789 309.811 210.453C309.035 209.117 307.59 207.89 305.478 206.771C303.396 205.653 300.383 204.488 296.437 203.276C292.15 201.972 288.313 200.434 284.927 198.663C281.541 196.861 278.869 194.671 276.912 192.092C274.986 189.483 274.023 186.33 274.023 182.633C274.023 178.967 275.032 175.736 277.052 172.94C279.102 170.144 281.945 167.954 285.579 166.369C289.214 164.754 293.424 163.946 298.208 163.946C303.241 163.946 307.574 164.878 311.209 166.742C314.875 168.606 317.687 171.107 319.644 174.245C321.632 177.383 322.626 180.846 322.626 184.637H311.023C311.023 182.4 310.541 180.427 309.578 178.718C308.646 176.979 307.217 175.612 305.291 174.618C303.396 173.623 300.988 173.126 298.068 173.126C295.303 173.126 293.004 173.546 291.171 174.385C289.339 175.223 287.972 176.357 287.071 177.786C286.17 179.215 285.719 180.831 285.719 182.633C285.719 184.31 286.247 185.802 287.304 187.106C288.36 188.411 289.96 189.607 292.103 190.694C294.278 191.751 297.027 192.76 300.352 193.723C305.353 195.215 309.516 196.939 312.84 198.896C316.164 200.822 318.65 203.106 320.296 205.746C321.943 208.387 322.766 211.524 322.766 215.159C322.766 218.98 321.756 222.273 319.737 225.038C317.749 227.803 314.937 229.931 311.302 231.423C307.699 232.914 303.458 233.659 298.581 233.659C295.319 233.659 292.103 233.224 288.935 232.355C285.797 231.485 282.939 230.164 280.36 228.394C277.782 226.592 275.731 224.355 274.209 221.683C272.687 218.98 271.926 215.827 271.926 212.223H283.622C283.622 214.429 283.995 216.309 284.741 217.862C285.517 219.415 286.589 220.689 287.956 221.683C289.323 222.646 290.907 223.361 292.709 223.827C294.542 224.293 296.499 224.526 298.581 224.526C301.315 224.526 303.598 224.137 305.431 223.361C307.295 222.584 308.693 221.497 309.625 220.099C310.557 218.701 311.023 217.085 311.023 215.252Z" fill="white"/>
<path opacity="0.69" d="M263.63 196.939V200.667C263.63 207.501 262.45 213.388 260.089 218.328C257.759 223.237 254.481 227.027 250.256 229.698C246.062 232.339 241.169 233.659 235.577 233.659C230.047 233.659 225.154 232.339 220.898 229.698C216.673 227.027 213.349 223.237 210.926 218.328C208.534 213.388 207.338 207.501 207.338 200.667V196.939C207.338 190.104 208.534 184.233 210.926 179.324C213.318 174.385 216.627 170.595 220.852 167.954C225.077 165.282 229.954 163.946 235.484 163.946C241.076 163.946 245.985 165.282 250.21 167.954C254.466 170.595 257.759 174.385 260.089 179.324C262.45 184.233 263.63 190.104 263.63 196.939ZM251.934 200.667V196.846C251.934 191.813 251.281 187.557 249.977 184.077C248.672 180.598 246.792 177.973 244.338 176.202C241.915 174.4 238.963 173.499 235.484 173.499C232.067 173.499 229.131 174.4 226.677 176.202C224.222 177.973 222.343 180.598 221.038 184.077C219.733 187.557 219.081 191.813 219.081 196.846V200.667C219.081 205.731 219.733 210.018 221.038 213.528C222.374 217.008 224.269 219.648 226.723 221.45C229.209 223.252 232.16 224.153 235.577 224.153C239.088 224.153 242.055 223.252 244.478 221.45C246.901 219.648 248.749 217.008 250.023 213.528C251.297 210.018 251.934 205.731 251.934 200.667Z" fill="white"/>
<defs>
<linearGradient id="paint0_linear_168_268" x1="258.812" y1="431.849" x2="262.755" y2="436.736" gradientUnits="userSpaceOnUse">
<stop/>
<stop offset="1" stop-opacity="0"/>
</linearGradient>
<linearGradient id="paint1_linear_168_268" x1="260.155" y1="424.907" x2="260.132" y2="430.78" gradientUnits="userSpaceOnUse">
<stop/>
<stop offset="1" stop-opacity="0"/>
</linearGradient>
<clipPath id="clip0_168_268">
<rect width="22.4489" height="19.9917" fill="white" transform="translate(207.338 418.909)"/>
</clipPath>
</defs>
</svg>
